<svg id="Layer_1" data-name="Layer 1" xmlns="http://www.w3.org/2000/svg" width="32" height="32" viewBox="0 0 32 32"><defs><style>.cls-1{fill:#fdeae0;}.cls-2{fill:#262c64;}.cls-3{fill:#272c66;}.cls-4{fill:none;}.cls-5{fill:#feeae0;}.cls-6{fill:#252d64;}</style></defs><title>HP-Icons-Final</title><rect class="cls-1" x="3.7" y="19.61" width="25.93" height="6.07" rx="1.33" ry="1.33"/><path class="cls-2" d="M14.82,24.08a.33.33,0,0,1-.33-.33V18.47a.33.33,0,0,1,.67,0v5.27A.33.33,0,0,1,14.82,24.08Z"/><path class="cls-2" d="M16,22.23H15a.33.33,0,0,1,0-.67h.59V20.5H15a.33.33,0,0,1,0-.67H16a.33.33,0,0,1,.33.33V21.9A.33.33,0,0,1,16,22.23Z"/><circle class="cls-3" cx="14.79" cy="15.07" r="0.37"/><circle class="cls-3" cx="17.17" cy="15.07" r="0.37"/><circle class="cls-3" cx="19.55" cy="15.07" r="0.37"/><circle class="cls-3" cx="21.93" cy="15.07" r="0.37"/><circle class="cls-3" cx="24.32" cy="15.07" r="0.37"/><circle class="cls-3" cx="26.7" cy="15.07" r="0.37"/><polyline class="cls-4" points="32 0 32 32 0 32"/><path class="cls-5" d="M11.54,6.61a2.08,2.08,0,0,1-2.06,2.1,2.08,2.08,0,0,1,2.06,2.1,2.08,2.08,0,0,1,2.06-2.1A2.08,2.08,0,0,1,11.54,6.61Z"/><path class="cls-2" d="M11.54,11.14a.33.33,0,0,1-.33-.33A1.75,1.75,0,0,0,9.48,9a.33.33,0,1,1,0-.67,1.75,1.75,0,0,0,1.73-1.77.33.33,0,0,1,.67,0A1.75,1.75,0,0,0,13.6,8.38a.33.33,0,1,1,0,.67,1.75,1.75,0,0,0-1.73,1.77A.33.33,0,0,1,11.54,11.14Zm-.85-2.43a2.42,2.42,0,0,1,.85.86,2.42,2.42,0,0,1,.85-.86,2.42,2.42,0,0,1-.85-.86A2.42,2.42,0,0,1,10.69,8.71Z"/><path class="cls-5" d="M20.36,7.45a1.51,1.51,0,0,1-1.24,1.26A1.51,1.51,0,0,1,20.36,10,1.51,1.51,0,0,1,21.6,8.71,1.51,1.51,0,0,1,20.36,7.45Z"/><path class="cls-2" d="M20.36,10.25a.27.27,0,0,1-.27-.27,1.28,1.28,0,0,0-1-1,.27.27,0,0,1,0-.55,1.28,1.28,0,0,0,1-1,.27.27,0,1,1,.55,0,1.27,1.27,0,0,0,1,1,.27.27,0,0,1,0,.55,1.27,1.27,0,0,0-1,1A.27.27,0,0,1,20.36,10.25Zm-.5-1.54a2.12,2.12,0,0,1,.5.51,2.14,2.14,0,0,1,.5-.51,2.14,2.14,0,0,1-.5-.51A2.12,2.12,0,0,1,19.86,8.71Z"/><path class="cls-2" d="M28.07,24.16H5.85c-1.48,0-1.57-1-1.57-1V17.94a1.59,1.59,0,0,1,.38-1,.72.72,0,0,1,.55-.2H6.88a43.3,43.3,0,0,1,4.72.67c3.24.59,4,.64,6.23,0a14.31,14.31,0,0,1,6.92-.11c2.44.42,4.27.56,4.28.56a.33.33,0,0,1,.31.36.34.34,0,0,1-.36.31s-1.88-.14-4.35-.57A13.69,13.69,0,0,0,18,18c-2.46.7-3.38.58-6.53,0a44.4,44.4,0,0,0-4.62-.66l-1.75,0a1,1,0,0,0-.16.56v5.18c0,.11.24.37.91.37H28.07a.33.33,0,1,1,0,.67Z"/><path class="cls-6" d="M7.43,15.1h0a.33.33,0,0,1-.29-.38,2.64,2.64,0,0,1,2.75-2,3,3,0,0,1,2.2.9l.05.07a.67.67,0,0,0,.6.25.9.9,0,0,0,.65-.9l0-.16c.15-1.67,1.12-2.09,1.91-2.14a5.84,5.84,0,0,1,2.65.9l.32.16c1.64.81,2.16.72,3.9,0l.07,0a8.1,8.1,0,0,1,2-.7,8.37,8.37,0,0,1,1.6-.18h0a.33.33,0,0,1,0,.67,7.67,7.67,0,0,0-1.47.17,7.49,7.49,0,0,0-1.84.63l-.09,0c-1.93.86-2.66,1-4.49,0l-.32-.16a6.13,6.13,0,0,0-2.3-.83c-.5,0-1.18.23-1.3,1.56l0,.16a1.54,1.54,0,0,1-1.23,1.49A1.33,1.33,0,0,1,11.57,14a2.32,2.32,0,0,0-1.72-.71,2,2,0,0,0-2.09,1.47A.33.33,0,0,1,7.43,15.1Z"/></svg>