<svg id="Layer_1" data-name="Layer 1" xmlns="http://www.w3.org/2000/svg" width="32" height="32" viewBox="0 0 32 32"><defs><style>.cls-1{fill:#e3f4fd;}.cls-2{fill:#262c64;}.cls-3{fill:none;}.cls-4{fill:#272c66;}</style></defs><title>HP-Icons-Final</title><path class="cls-1" d="M16.25,20.54a.77.77,0,0,1-.3-.06L4.73,16.63a.73.73,0,0,1,0-1.38l11.07-3.3a.76.76,0,0,1,.62-.05l11.24,3.35a.73.73,0,0,1,0,1.38l-11.06,3.8A.73.73,0,0,1,16.25,20.54Z"/><path class="cls-2" d="M13.26,14.34a.33.33,0,0,1-.29-.17L12.89,14l-.3-.44a3.23,3.23,0,0,1,0-3.5L13.28,9a1.61,1.61,0,0,0,.25-.87v-.2a.33.33,0,1,1,.67,0v.2a2.28,2.28,0,0,1-.36,1.23l-.72,1.11a2.55,2.55,0,0,0,0,2.76l.3.44.11.18a.33.33,0,0,1-.12.46A.33.33,0,0,1,13.26,14.34Z"/><path class="cls-2" d="M12.55,8.91a.33.33,0,0,1-.23-.57L13.64,7a.56.56,0,0,1,.24-.1.34.34,0,0,1,.24.1l1.3,1.32a.33.33,0,0,1-.47.47L13.88,7.74,12.78,8.82A.33.33,0,0,1,12.55,8.91Z"/><path class="cls-2" d="M19.66,14.34a.33.33,0,0,1-.29-.17L19.28,14,19,13.6a3.23,3.23,0,0,1,0-3.5L19.68,9a1.61,1.61,0,0,0,.25-.87v-.2a.33.33,0,1,1,.67,0v.2a2.29,2.29,0,0,1-.36,1.23l-.73,1.11a2.55,2.55,0,0,0,0,2.76l.3.44.11.18a.33.33,0,0,1-.12.46A.33.33,0,0,1,19.66,14.34Z"/><path class="cls-2" d="M18.95,8.91a.33.33,0,0,1-.23-.57L20,7a.57.57,0,0,1,.24-.1.34.34,0,0,1,.24.1l1.3,1.32a.33.33,0,0,1-.47.47L20.27,7.74,19.18,8.82A.33.33,0,0,1,18.95,8.91Z"/><path class="cls-2" d="M13.14,19.48a.33.33,0,0,1-.33-.33V17.43a.33.33,0,1,1,.67,0v1.72A.33.33,0,0,1,13.14,19.48Z"/><path class="cls-2" d="M13.14,23.22a.33.33,0,0,1-.33-.33V21.59a.33.33,0,1,1,.67,0v1.29A.33.33,0,0,1,13.14,23.22Z"/><circle class="cls-2" cx="13.14" cy="23.92" r="0.35"/><path class="cls-2" d="M19.53,19.48a.33.33,0,0,1-.33-.33V17.43a.33.33,0,1,1,.67,0v1.72A.33.33,0,0,1,19.53,19.48Z"/><path class="cls-2" d="M19.53,23.22a.33.33,0,0,1-.33-.33V21.59a.33.33,0,1,1,.67,0v1.29A.33.33,0,0,1,19.53,23.22Z"/><circle class="cls-2" cx="19.52" cy="23.92" r="0.35"/><path class="cls-2" d="M16.25,18.62a1,1,0,0,1-.39-.08l-10-3.45a1,1,0,0,1,0-1.87l9.91-3a.93.93,0,0,1,.76,0l10,3a1,1,0,0,1,0,1.87l-9.91,3.4A.84.84,0,0,1,16.25,18.62Zm-.06-7.78a.32.32,0,0,0-.16,0l-10,3a.32.32,0,0,0,0,.6l10.06,3.45a.33.33,0,0,0,.33,0l10-3.44a.32.32,0,0,0,.21-.31.32.32,0,0,0-.23-.3l-10.07-3Z"/><path class="cls-2" d="M16.25,22.62a1,1,0,0,1-.39-.08l-10-3.45a1,1,0,0,1,0-1.87L6.7,17a.33.33,0,0,1,.42.22.33.33,0,0,1-.22.42L6,17.86a.32.32,0,0,0,0,.6l10.06,3.45a.32.32,0,0,0,.33,0l10-3.44a.32.32,0,0,0,.21-.31.32.32,0,0,0-.23-.3l-.83-.25a.33.33,0,0,1,.19-.64l.83.25a1,1,0,0,1,0,1.87l-9.91,3.4A.84.84,0,0,1,16.25,22.62Z"/><polyline class="cls-3" points="32.25 0 32.25 32 0.25 32"/><circle class="cls-4" cx="8.74" cy="10.33" r="0.37"/><circle class="cls-4" cx="11.65" cy="5.52" r="0.37"/><circle class="cls-4" cx="23.04" cy="10.82" r="0.37"/><circle class="cls-4" cx="25.79" cy="9.3" r="0.37"/><circle class="cls-4" cx="17.67" cy="7.26" r="0.37"/></svg>