<?xml version="1.0" encoding="utf-8"?>
<!-- Generator: Adobe Illustrator 23.0.2, SVG Export Plug-In . SVG Version: 6.00 Build 0)  -->
<svg version="1.1"
	 id="svg3100" inkscape:version="0.48.5 r10040" sodipodi:docname="NBC_30_Conn.png" xmlns:cc="http://creativecommons.org/ns#" xmlns:dc="http://purl.org/dc/elements/1.1/" xmlns:inkscape="http://www.inkscape.org/namespaces/inkscape" xmlns:rdf="http://www.w3.org/1999/02/22-rdf-syntax-ns#" xmlns:sodipodi="http://sodipodi.sourceforge.net/DTD/sodipodi-0.dtd" xmlns:svg="http://www.w3.org/2000/svg"
	 xmlns="http://www.w3.org/2000/svg" xmlns:xlink="http://www.w3.org/1999/xlink" x="0px" y="0px" width="701px" height="701px"
	 viewBox="0 0 701 701" style="enable-background:new 0 0 701 701;" xml:space="preserve">
<style type="text/css">
	.st0{fill:#FFFFFF;}
	.st1{fill:#1E306E;}
</style>
<g>
	<path id="path3113" inkscape:connector-curvature="0" class="st0" d="M350.5,123.9c-10.9-27.3-37.5-56.7-87.4-52.7
		c-63.5,6.9-83.3,67.8-73.7,104.1c-25.3-17.1-68.3-24.7-105.8,7.5c-48.5,48.6-22.5,114.3,4.1,130c-29.4-2.7-75.8,17.1-86,69
		c-10.9,64.4,38.2,102,86,102h530.4c55.3,0,86-47.9,82.6-93c-5.4-58.9-59.3-81.5-88.7-76.7c24.6-13.7,57.4-78.1,7.5-128.7
		c-39.6-37.7-90.1-24-107.8-7.5c9.6-31.5-6.1-96.5-70.3-106.8c-4.4-0.5-8.7-0.8-12.8-0.8C379.4,70.5,357.4,106.3,350.5,123.9"/>
	<path id="path3115" inkscape:connector-curvature="0" class="st1" d="M92.4,193c-28,25.4-38.2,82.8,12.3,116.4l201.4,138.2
		l-97.6-223.7C188,171.1,132,159.6,92.4,193"/>
	<path id="path3117" inkscape:connector-curvature="0" class="st1" d="M265.8,84.3c-32.7,0.7-81.9,39.7-60,99.2l101,238.2
		l35.5-250.5C350.4,108.9,303.3,80.1,265.8,84.3"/>
	<path id="path3119" inkscape:connector-curvature="0" class="st1" d="M358,161.5h19.1c0,0,10.2,0,11.6,4.8
		c-7.5,6.1-28,6.9-25.3,39.7l32.1,215.5l100.3-238.8c20.5-53.3-22.5-97.9-60.7-99.2c-1.8-0.1-3.6-0.2-5.4-0.2
		C395.4,83.3,356.1,108.3,358,161.5"/>
	<path id="path3121" inkscape:connector-curvature="0" class="st1" d="M491.8,225.9l-94.9,221L598.2,308
		c46.4-32.9,38.9-85.5,12.9-111.6c-10.9-12.2-30.9-21.7-52.1-21.7C534.1,174.8,507.3,188,491.8,225.9"/>
	<path id="path3123" inkscape:connector-curvature="0" class="st1" d="M575.7,339.5l-189.1,132h232.8c47.8,0,78.5-49.2,64.8-94.4
		c-9.1-28.4-36.2-50.7-67.6-50.7C603.5,326.4,589.5,330.3,575.7,339.5"/>
	<path id="path3125" inkscape:connector-curvature="0" class="st1" d="M87,471.5h229.4l-189.2-132c-43.7-28.1-92.8-11.6-110.6,34.9
		C1.6,427.7,39.2,471.5,87,471.5"/>
	<path class="st1" d="M0.8,567.1c0,22.5,18.4,63.4,88.6,63.4c64.7,0,85.2-29.7,85.2-43.3h-50.1c0,0-2.4,18-30.6,18
		c-28.3,0-35.9-23.6-35.9-37.3c0-13.6,7.7-35.9,35.9-35.9c28.3,0,30.6,15.7,30.6,15.7h50.1c0-13.6-15-42.9-85.2-42.9
		C19.2,504.8,0.8,548.4,0.8,567.1"/>
	<path class="st1" d="M526.4,567.1c0,22.5,18.4,63.4,88.6,63.4c64.7,0,85.2-29.7,85.2-43.3h-50.1c0,0-2.4,18-30.7,18
		s-35.9-23.6-35.9-37.3c0-13.6,7.7-35.9,35.9-35.9c28.3,0,30.7,15.7,30.7,15.7h50.1c0-13.6-15-42.9-85.2-42.9
		C544.8,504.8,526.4,548.4,526.4,567.1"/>
	<polyline class="st1" points="311.6,506.9 311.6,583 253.2,506.9 187.6,506.9 187.6,627.5 232.6,627.5 232.6,550.4 289.9,627.5 
		356.5,627.5 356.5,506.9 311.6,506.9 	"/>
	<path class="st1" d="M455.7,598.7v0.2h-37.5v-22.1h37.5v0.1c8,0,14.5,4.9,14.5,11C470.2,593.8,463.7,598.7,455.7,598.7
		 M418.6,530.3h36.1v0.1c6.1,0,11.1,4,11.1,9s-5,9-11.1,9v0.1h-36.1V530.3z M492.5,563.3c8.2,0,25.3-9.5,25.3-27.9
		c0-26.2-48.8-28.6-56.3-28.6h-90v120.6h90c43.3,0,60.6-13.7,60.6-36.5S492.5,563.3,492.5,563.3z"/>
</g>
</svg>
