<svg xmlns="http://www.w3.org/2000/svg" width="49" height="35" viewBox="0 0 49 35"><g fill="#00237E" fill-rule="nonzero"><path d="M10.812 27.786c0 1.313-.149 5.458-.149 5.458 0 .829.298 1.174 1.116 1.174v.346H8.506v-.277c.818 0 1.265-.345 1.265-1.174l.297-6.77c-.223-.553-.446-.691-1.116-.76v-.346h2.455l2.605 6.356 2.604-6.356h2.232v.346c-.595 0-.967.276-.967.898l.297 6.563c0 .967.223 1.243 1.042 1.243v.346H15.5v-.346c.744 0 1.041-.207 1.041-1.243 0 0-.148-4.56-.223-5.389l-1.786 4.56c-.223.552-.446 1.243-.67 1.934l-.594.07c-.15-.484-.521-1.382-.521-1.382s-1.414-3.938-1.935-5.25z"/><path d="M7.887 34.166c-.223-.07-.372-.07-.595-.07-.372 0-1.042.208-1.86.208C2.307 34.304 0 32.577 0 29.33c0-2.695 2.158-4.836 5.506-4.836a7.2 7.2 0 0 1 2.38.414l.373-.345h.298c-.075.483-.224 2.072-.224 2.072h-.297c-.224-.967-.744-1.589-2.381-1.589-2.01 0-3.87 1.451-3.87 4.215 0 3.108 1.86 4.421 3.944 4.421 1.34 0 2.158-.69 2.679-1.589l.372.138-.893 1.935zM34.617 26.843v5.388c0 1.175.297 1.382 1.041 1.382v.345h-5.655v-.345c.447 0 .819-.138.819-.415 0-.207-.075-.483-.149-.829l-.446-1.312h-3.2c-.074.207-.595 1.658-.595 2.072 0 .346.446.415.744.415v.345h-2.604v-.276c.446 0 .893-.07 1.19-.967l2.381-7.323c-.148-.346-.372-.415-.67-.415v-.345h2.158l2.605 7.6c.223.828.446 1.174.892 1.38.596-.206.744-.345.744-1.38v-6.426c-.446-.552-.446-.898-1.264-.898v-.345h2.455l4.018 6.356v-4.836c0-.968-.223-1.175-1.042-1.175v-.345h5.357v.345c-.372 0-.595.138-.595.415 0 .207.074.414.223.69l1.563 3.11 1.488-2.971c.223-.415.297-.622.297-.83 0-.276-.223-.414-.595-.414v-.345h2.53v.345c-.595 0-1.042.553-1.265 1.175l-1.934 3.73v2.487c0 1.037.297 1.313 1.041 1.313v.345h-3.646v-.276c.744 0 1.042-.276 1.042-1.313v-2.072l-2.083-4.145c-.372-.83-.521-.967-.744-1.106-.447.208-.596.484-.596 1.175v6.84s.075.552.075 1.174l-.595.069-4.985-7.392zm-6.027-.415l-1.34 4.076h2.753l-1.413-4.076z"/><path d="M23.195 31.31h-.744v1.934c0 .967.297 1.174 1.116 1.174v.346h-3.72v-.277c.744 0 1.041-.276 1.041-1.243v-6.287c0-.967-.297-1.174-1.041-1.174v-.346H22.6c2.678 0 4.24.76 4.24 2.833.15 2.141-1.785 3.04-3.645 3.04zm-.447-5.251h-.223v4.56h.447c1.562 0 2.38-.691 2.38-2.35 0-1.657-.744-2.21-2.604-2.21zM5.886 32.322c-1.86 0-3.05-1.174-3.05-2.97 0-1.659 1.264-2.971 3.05-2.971 1.711 0 3.05 1.243 3.05 2.97 0 1.658-1.339 2.971-3.05 2.971zm0-5.32c-1.265 0-1.712 1.106-1.712 2.418 0 1.175.373 2.418 1.712 2.418 1.265 0 1.637-1.174 1.637-2.418 0-1.312-.521-2.418-1.637-2.418z"/><g><path d="M47.98 4.6h-.745c-.075-1.971-.746-2.555-2.312-2.555H41.94v15.993c0 2.629.522 3.14 2.311 3.14v.804h-7.83v-.804c1.79 0 2.312-.511 2.312-3.286V2.045h-2.984c-2.013 0-2.312.511-2.834 2.556h-.745L32.692 0l.522.073c.223.511.596.511 1.864.511h10.068c1.865 0 2.312 0 2.685-.584h.597l-.448 4.6z"/><path d="M25.671 22.61c-1.53 0-2.677-.22-3.519-.513-.842-.22-1.53-.512-1.836-.731-.46.439-.765.95-.765.95l-.612-.219.535-4.829.765.073c.46 2.269 2.066 3.878 5.356 3.878 2.601 0 4.284-2.048 4.284-4.317 0-1.829-.765-2.78-3.29-4.61-.841-.512-1.606-.95-2.218-1.463-2.372-1.463-3.826-3.073-3.826-5.707C20.545 2.049 23.223 0 26.743 0c2.065 0 3.29.585 3.749.805L31.257 0l.535.073-.535 4.39-.765-.073c0-2.049-1.301-2.927-3.443-2.927-2.066 0-3.52 1.025-3.52 2.927 0 1.756 1.377 2.854 2.984 3.878.842.512 1.53.951 2.142 1.317 3.75 2.561 4.59 4.171 4.59 6.659-.076 3.731-2.983 6.366-7.574 6.366zM14.762 4.7h-.828c0-1.808-.828-2.53-2.56-2.53H6.63v7.953h3.012c1.581 0 1.882-.795 2.108-2.097h.753v5.64h-.753c-.226-1.518-.527-2.097-2.183-2.097H6.63v6.797c0 2.53.602 2.82 2.334 2.82v.796H.982v-.796c2.033 0 2.334-.506 2.334-2.82V3.471c0-1.446-.602-2.025-2.334-2.025V.723h10.919c1.882 0 2.334-.072 2.635-.723h.754l-.528 4.7z"/><path d="M18.324 16.264v-.71c1.023 0 1.243-.284 1.243-.567 0-.426-.073-.71-.22-.994 0 0-.219-.78-.438-1.42H14.96l-.44 1.278c-.072.284-.218.568-.218.994 0 .425.438.71 1.023.71v.709h-3.948v-.71c1.024 0 1.462-.284 1.828-1.42l3.07-8.94c-.072-.427-.438-.71-1.023-.71v-.71h3.29c2.632 7.664 3.363 9.651 3.363 9.651.512 1.703 1.024 2.2 1.828 2.2v.71h-5.41v-.071zm-1.462-9.58l-1.536 4.825h3.144l-1.608-4.825z"/></g></g></svg>