<svg id="Layer_1" data-name="Layer 1" xmlns="http://www.w3.org/2000/svg" width="32" height="32" viewBox="0 0 32 32"><defs><style>.cls-1{fill:#262c64;}.cls-2{fill:#fff;}.cls-3{fill:#fbe9af;}.cls-4{fill:none;}</style></defs><title>HP-Icons-Final</title><path class="cls-1" d="M16.36,12H9.74a.82.82,0,0,1-.82-.82v-.5a.82.82,0,0,1,.81-.82V8.6a.85.85,0,0,1,.85-.85h4.91a.85.85,0,0,1,.85.85l0,1.25a.82.82,0,0,1,.82.82v.5A.82.82,0,0,1,16.36,12ZM9.74,10.52a.16.16,0,0,0-.15.16v.5a.16.16,0,0,0,.15.15h6.62a.16.16,0,0,0,.15-.15v-.5a.16.16,0,0,0-.15-.16H16a.33.33,0,0,1-.33-.33V8.6a.18.18,0,0,0-.18-.18H10.58a.18.18,0,0,0-.18.18V9.85h4.51a.33.33,0,1,1,0,.67Z"/><path class="cls-1" d="M19.33,24.91H6.8A.85.85,0,0,1,6,24.07V10a.85.85,0,0,1,.85-.85H10a.33.33,0,1,1,0,.67H6.8a.18.18,0,0,0-.18.18V24.07a.18.18,0,0,0,.18.18H19.33a.18.18,0,0,0,.18-.18V10a.18.18,0,0,0-.18-.18H16a.33.33,0,1,1,0-.67h3.33a.85.85,0,0,1,.85.85V24.07A.85.85,0,0,1,19.33,24.91Z"/><path class="cls-1" d="M18,23.57H8.18a.85.85,0,0,1-.85-.85V11.34a.85.85,0,0,1,.85-.85h1a.33.33,0,1,1,0,.67h-1a.18.18,0,0,0-.18.18V22.72a.18.18,0,0,0,.18.18H18a.18.18,0,0,0,.18-.18V11.34a.18.18,0,0,0-.18-.18h-1.1a.33.33,0,0,1,0-.67H18a.85.85,0,0,1,.85.85V22.72A.85.85,0,0,1,18,23.57Z"/><path class="cls-1" d="M10.13,19.82a.33.33,0,0,1-.25-.11l-.55-.61a.33.33,0,0,1,.49-.45l.33.36L11.32,18a.33.33,0,1,1,.45.49l-1.41,1.28A.33.33,0,0,1,10.13,19.82Z"/><path class="cls-1" d="M15.5,19.18H13a.33.33,0,1,1,0-.67H15.5a.33.33,0,1,1,0,.67Z"/><path class="cls-1" d="M10.13,16.19a.33.33,0,0,1-.25-.11l-.55-.61A.33.33,0,0,1,9.82,15l.33.36,1.16-1.06a.33.33,0,0,1,.45.49l-1.41,1.28A.34.34,0,0,1,10.13,16.19Z"/><path class="cls-1" d="M15.5,15.55H13a.33.33,0,1,1,0-.67H15.5a.33.33,0,1,1,0,.67Z"/><path class="cls-2" d="M21.34,22.64a5.06,5.06,0,0,0,1.61-9.85V6.51h-3.1v6.28a5.06,5.06,0,0,0,1.61,9.85Z"/><path class="cls-1" d="M23.65,6.85H19.31a.33.33,0,1,1,0-.67h4.34a.33.33,0,1,1,0,.67Z"/><path class="cls-3" d="M27.64,17.89c-1.07.35-3.86,1.05-6.12-.16-2.86-1.53-6.18-.09-6.3-.12l-.18.13a6.45,6.45,0,0,0,6.45,6.45h-.16A6.45,6.45,0,0,0,27.78,18Z"/><polyline class="cls-4" points="32 0 32 32 0 32 0 0"/><path class="cls-1" d="M21.46,23H21.3a5.39,5.39,0,0,1-1.78-10.42v-6a.33.33,0,0,1,.33-.33h3.1a.33.33,0,0,1,.33.33v6A5.39,5.39,0,0,1,21.5,23ZM20.18,6.85v5.94a.33.33,0,0,1-.23.32,4.66,4.66,0,1,0,2.89,0,.33.33,0,0,1-.23-.32V6.85Z"/><path class="cls-1" d="M23.81,18.44a5.25,5.25,0,0,1-2.49-.57,5.74,5.74,0,0,0-4.5-.12.63.63,0,0,1-.36.06.33.33,0,0,1,0-.66l.12,0a6.36,6.36,0,0,1,5,.17,6.18,6.18,0,0,0,4.54.1.33.33,0,1,1,.21.63A8.62,8.62,0,0,1,23.81,18.44Z"/><circle class="cls-1" cx="18.38" cy="18.62" r="0.35"/><circle class="cls-1" cx="20.71" cy="19.12" r="0.35"/><circle class="cls-1" cx="21.71" cy="20.88" r="0.35"/><circle class="cls-1" cx="23.65" cy="19.77" r="0.35"/></svg>